<svg width="32" height="32" xmlns="http://www.w3.org/2000/svg">
    <g fill="#F0F4F8" fill-rule="nonzero">
        <path d="M12.02 5c.646 0 1.146.333 1.499 1L14.8 8.833h11.28c1.325 0 1.92.792 1.92 2.203v14.962c0 1.41-.595 2.002-1.92 2.002H6c-1.325 0-2-.591-2-2.002V7C4 5.59 4.675 5 6 5h6.02Zm-1.562 3H7.995c-.651 0-.976.302-.976.908V18h17.998v-5.427c0-.618-.34-.927-1.017-.927H13.5c-.412 0-.738-.307-.978-.92l-.939-1.818C11.217 8.302 10.842 8 10.458 8Z" fill-opacity=".16" />
        <path d="M7 18h17.998v-5.426c0-.619-.339-.928-1.016-.928h-10.5c-.413 0-.739-.306-.979-.92l-.938-1.817C11.198 8.303 10.823 8 10.44 8H7.976C7.326 8 7 8.303 7 8.909V18Z" fill-opacity=".04" />
    </g>
</svg>
